<svg width="1920" height="441" viewBox="0 0 1920 441" fill="none" xmlns="http://www.w3.org/2000/svg">
<g opacity="0.1">
<path d="M0 37C163.333 75.1667 552.4 147.6 802 132C1114 112.5 1222 20 1500.5 49.5C1723.3 73.1 1873 27 1920 1" stroke="#57FFDC" stroke-width="2"/>
<path d="M0 380.352C189.667 367.019 640.8 354.452 928 410.852C1287 481.352 1510 404.852 1623 380.352C1713.4 360.753 1858.67 392.186 1920 410.353" stroke="#0A0A0A" stroke-width="2"/>
<path d="M0 51.3806C164.587 87.0949 556.61 155.481 808 143.309C1122.24 128.095 1235.71 36.3568 1506.33 63.2853C1722.83 84.8282 1872.32 42.4203 1920 18.5234" stroke="#53F3D2" stroke-width="2"/>
<path d="M0 65.7621C165.841 99.024 560.819 163.362 814 154.619C1130.48 143.691 1249.43 52.7145 1512.17 77.0717C1722.36 96.5574 1871.63 57.8415 1920 36.0479" stroke="#50E8C8" stroke-width="2"/>
<path d="M0 80.1427C167.095 110.952 565.029 171.243 820 165.928C1138.71 159.286 1263.14 69.0713 1518 90.857C1721.89 108.286 1870.95 73.2618 1920 53.5713" stroke="#4CDCBE" stroke-width="2"/>
<path d="M0 94.5243C168.349 122.881 569.238 179.124 826 177.239C1146.95 174.881 1276.86 85.429 1523.83 104.643C1721.41 120.015 1870.27 88.683 1920 71.0957" stroke="#48D0B4" stroke-width="2"/>
<path d="M0 108.905C169.603 134.81 573.448 187.005 832 188.548C1155.19 190.476 1290.57 101.786 1529.67 118.429C1720.94 131.743 1869.59 104.103 1920 88.6191" stroke="#45C5AA" stroke-width="2"/>
<path d="M0 123.285C170.857 146.738 577.657 194.885 838 199.857C1163.43 206.071 1304.29 118.143 1535.5 132.214C1720.47 143.471 1868.9 119.524 1920 106.143" stroke="#41B9A0" stroke-width="2"/>
<path d="M0 137.667C172.111 158.667 581.867 202.767 844 211.167C1171.67 221.667 1318 134.5 1541.33 146C1720 155.2 1868.22 134.945 1920 123.667" stroke="#3DAD96" stroke-width="2"/>
<path d="M0 152.048C173.365 170.595 586.076 210.648 850 222.476C1179.9 237.262 1331.71 150.857 1547.17 159.786C1719.53 166.929 1867.54 150.365 1920 141.19" stroke="#3AA28C" stroke-width="2"/>
<path d="M0 166.429C174.619 182.524 590.286 218.529 856 233.786C1188.14 252.858 1345.43 167.215 1553 173.572C1719.06 178.658 1866.86 165.786 1920 158.715" stroke="#369682" stroke-width="2"/>
<path d="M0 180.81C175.873 194.453 594.495 226.41 862 245.095C1196.38 268.453 1359.14 183.572 1558.83 187.357C1718.59 190.386 1866.17 181.207 1920 176.238" stroke="#328A78" stroke-width="2"/>
<path d="M0 195.19C177.127 206.381 598.705 234.29 868 256.405C1204.62 284.047 1372.86 199.928 1564.67 201.143C1718.11 202.114 1865.49 196.627 1920 193.762" stroke="#2E7E6E" stroke-width="2"/>
<path d="M0 211.285C178.381 220.023 602.914 243.885 874 269.428C1212.86 301.357 1386.57 217.999 1570.5 216.642C1717.64 215.557 1864.81 213.761 1920 212.999" stroke="#2B7364" stroke-width="2"/>
<path d="M0 228.81C179.635 235.095 607.124 254.91 880 283.881C1221.1 320.095 1400.29 237.5 1576.33 233.571C1717.17 230.429 1864.13 232.325 1920 233.667" stroke="#27675A" stroke-width="2"/>
<path d="M0 246.333C180.889 250.166 611.333 265.933 886 298.333C1229.33 338.833 1414 257 1582.17 250.5C1716.7 245.3 1863.44 250.889 1920 254.333" stroke="#235B50" stroke-width="2"/>
<path d="M0 263.857C182.143 265.238 615.543 276.957 892 312.786C1237.57 357.572 1427.71 276.5 1588 267.429C1716.23 260.172 1862.76 269.453 1920 275" stroke="#205046" stroke-width="2"/>
<path d="M0 281.643C183.397 280.572 619.752 288.243 898 327.501C1245.81 376.572 1441.43 296.262 1593.83 284.62C1715.76 275.305 1862.08 288.278 1920 295.929" stroke="#1C443C" stroke-width="2"/>
<path d="M0 300.349C184.651 296.826 623.962 300.449 904 343.135C1254.05 396.492 1455.14 316.945 1599.67 302.73C1715.29 291.359 1861.4 308.024 1920 317.778" stroke="#183832" stroke-width="2"/>
<path d="M0 319.248C185.905 313.272 628.171 312.848 910 358.963C1262.29 416.606 1468.86 337.82 1605.5 321.034C1714.81 307.606 1860.71 327.963 1920 339.82" stroke="#152D28" stroke-width="2"/>
<path d="M0 339.21C187.159 330.781 632.381 326.31 916 375.852C1270.52 437.781 1482.57 359.757 1611.33 340.4C1714.34 324.914 1860.03 348.964 1920 362.924" stroke="#11211E" stroke-width="2"/>
<path d="M0 359.622C188.413 348.741 636.59 340.222 922 393.194C1278.76 459.408 1496.29 382.146 1617.17 360.217C1713.87 342.675 1859.35 370.416 1920 386.479" stroke="#0D1514" stroke-width="2"/>
</g>
</svg>
