<svg width="90" height="28" viewBox="0 0 90 28" fill="none" xmlns="http://www.w3.org/2000/svg">
<g clip-path="url(#clip0_393_285)">
<path d="M47.432 7.03503C47.432 8.04404 46.6166 8.85686 45.6044 8.85686C44.5922 8.85686 43.7768 8.04404 43.7768 7.03503C43.7768 6.02603 44.5641 5.21321 45.6044 5.21321C46.6447 5.24124 47.432 6.05405 47.432 7.03503ZM39.8968 10.7067C39.8968 10.8749 39.8968 11.1552 39.8968 11.1552C39.8968 11.1552 39.0252 10.034 37.1695 10.034C34.1049 10.034 31.715 12.3604 31.715 15.5836C31.715 18.7788 34.0768 21.1331 37.1695 21.1331C39.0533 21.1331 39.8968 19.984 39.8968 19.984V20.4605C39.8968 20.6847 40.0655 20.8529 40.2904 20.8529H42.5678V10.3143C42.5678 10.3143 40.4873 10.3143 40.2904 10.3143C40.0655 10.3143 39.8968 10.5105 39.8968 10.7067ZM39.8968 17.4615C39.4751 18.0781 38.6316 18.6106 37.6194 18.6106C35.82 18.6106 34.4423 17.4895 34.4423 15.5836C34.4423 13.6777 35.82 12.5566 37.6194 12.5566C38.6035 12.5566 39.5032 13.1171 39.8968 13.7057V17.4615ZM44.2548 10.3143H46.954V20.8529H44.2548V10.3143ZM84.5735 10.034C82.7178 10.034 81.8462 11.1552 81.8462 11.1552V5.24124H79.147V20.8529C79.147 20.8529 81.2276 20.8529 81.4245 20.8529C81.6494 20.8529 81.8181 20.6567 81.8181 20.4605V19.984C81.8181 19.984 82.6897 21.1331 84.5454 21.1331C87.61 21.1331 89.9999 18.7788 89.9999 15.5836C89.9999 12.3884 87.61 10.034 84.5735 10.034ZM84.1236 18.5826C83.0833 18.5826 82.2679 18.05 81.8462 17.4334V13.6777C82.2679 13.1171 83.1677 12.5285 84.1236 12.5285C85.9231 12.5285 87.3007 13.6496 87.3007 15.5556C87.3007 17.4615 85.9231 18.5826 84.1236 18.5826ZM77.7412 14.6026V20.8809H75.0421V14.9109C75.0421 13.1732 74.4798 12.4725 72.9615 12.4725C72.1461 12.4725 71.3026 12.8929 70.7684 13.5095V20.8529H68.0693V10.3143H70.2061C70.431 10.3143 70.5997 10.5105 70.5997 10.7067V11.1552C71.387 10.3423 72.4273 10.034 73.4676 10.034C74.6484 10.034 75.6325 10.3704 76.4198 11.043C77.3757 11.8278 77.7412 12.8368 77.7412 14.6026ZM61.5182 10.034C59.6625 10.034 58.7909 11.1552 58.7909 11.1552V5.24124H56.0917V20.8529C56.0917 20.8529 58.1724 20.8529 58.3692 20.8529C58.5941 20.8529 58.7628 20.6567 58.7628 20.4605V19.984C58.7628 19.984 59.6344 21.1331 61.4901 21.1331C64.5547 21.1331 66.9446 18.7788 66.9446 15.5836C66.9727 12.3884 64.5828 10.034 61.5182 10.034ZM61.0683 18.5826C60.028 18.5826 59.2127 18.05 58.7909 17.4334V13.6777C59.2127 13.1171 60.1124 12.5285 61.0683 12.5285C62.8678 12.5285 64.2455 13.6496 64.2455 15.5556C64.2455 17.4615 62.8678 18.5826 61.0683 18.5826ZM53.7581 10.034C54.5735 10.034 54.9952 10.1742 54.9952 10.1742V12.6687C54.9952 12.6687 52.7459 11.9119 51.3401 13.5095V20.8809H48.641V10.3143C48.641 10.3143 50.7216 10.3143 50.9184 10.3143C51.1433 10.3143 51.312 10.5105 51.312 10.7067V11.1552C51.8181 10.5666 52.9146 10.034 53.7581 10.034ZM25.7262 19.8999C25.5857 19.5636 25.4451 19.1992 25.3045 18.8909C25.0796 18.3864 24.8546 17.9099 24.6578 17.4615L24.6297 17.4334C22.6897 13.2292 20.6091 8.96897 18.416 4.76476L18.3317 4.5966C18.1067 4.17618 17.8818 3.72773 17.6569 3.27928C17.3757 2.77477 17.0946 2.24224 16.6447 1.73774C15.745 0.616617 14.4516 0 13.0739 0C11.6681 0 10.4029 0.616617 9.47507 1.68168C9.05332 2.18619 8.74404 2.71872 8.46288 3.22322C8.23795 3.67167 8.01302 4.12012 7.78809 4.54054L7.70374 4.70871C5.5388 8.91291 3.43008 13.1732 1.49006 17.3774L1.46194 17.4334C1.26513 17.8819 1.0402 18.3584 0.815272 18.8629C0.674691 19.1712 0.53411 19.5075 0.393529 19.8719C0.0280178 20.9089 -0.084447 21.8899 0.056134 22.8989C0.365412 25.001 1.77122 26.7668 3.71124 27.5516C4.44226 27.8599 5.2014 28 5.98866 28C6.21358 28 6.49475 27.972 6.71968 27.9439C7.64751 27.8318 8.60346 27.5235 9.5313 26.991C10.6841 26.3463 11.7806 25.4214 13.0177 24.0761C14.2548 25.4214 15.3795 26.3463 16.5041 26.991C17.432 27.5235 18.3879 27.8318 19.3157 27.9439C19.5407 27.972 19.8218 28 20.0468 28C20.834 28 21.6213 27.8599 22.3242 27.5516C24.2923 26.7668 25.67 24.973 25.9793 22.8989C26.2042 21.9179 26.0917 20.9369 25.7262 19.8999ZM13.0458 21.3574C11.5276 19.4514 10.5435 17.6577 10.2061 16.1441C10.0655 15.4995 10.0374 14.9389 10.1217 14.4344C10.178 13.986 10.3467 13.5936 10.5716 13.2573C11.1058 12.5005 12.0055 12.024 13.0458 12.024C14.0861 12.024 15.014 12.4725 15.5201 13.2573C15.745 13.5936 15.9137 13.986 15.9699 14.4344C16.0543 14.9389 16.0261 15.5275 15.8856 16.1441C15.5482 17.6296 14.5641 19.4234 13.0458 21.3574ZM24.2642 22.6747C24.0674 24.1321 23.0833 25.3934 21.7056 25.954C21.0308 26.2342 20.2998 26.3183 19.5688 26.2342C18.8659 26.1501 18.163 25.9259 17.432 25.5055C16.4198 24.9449 15.4076 24.0761 14.2267 22.7868C16.0824 20.5165 17.207 18.4424 17.6288 16.5926C17.8256 15.7237 17.8537 14.9389 17.7693 14.2102C17.6569 13.5095 17.4038 12.8649 17.0102 12.3043C16.1386 11.043 14.6766 10.3143 13.0458 10.3143C11.4151 10.3143 9.95304 11.0711 9.08144 12.3043C8.68781 12.8649 8.43477 13.5095 8.3223 14.2102C8.20984 14.9389 8.23795 15.7518 8.46288 16.5926C8.88463 18.4424 10.0374 20.5445 11.8649 22.8148C10.7122 24.1041 9.67188 24.973 8.6597 25.5335C7.92867 25.954 7.22577 26.1782 6.52286 26.2623C5.76373 26.3463 5.0327 26.2342 4.38603 25.982C3.00834 25.4214 2.02427 24.1602 1.82746 22.7027C1.74311 22.002 1.79934 21.3013 2.0805 20.5165C2.16485 20.2362 2.30543 19.956 2.44601 19.6196C2.64283 19.1712 2.86776 18.6947 3.09269 18.2182L3.1208 18.1622C5.06082 13.986 7.14142 9.72573 9.30637 5.57758L9.39072 5.40941C9.61565 4.98899 9.84058 4.54054 10.0655 4.12012C10.2904 3.67167 10.5435 3.25125 10.8528 2.88689C11.4432 2.21421 12.2305 1.84985 13.1021 1.84985C13.9737 1.84985 14.7609 2.21421 15.3514 2.88689C15.6606 3.25125 15.9137 3.67167 16.1386 4.12012C16.3635 4.54054 16.5885 4.98899 16.8134 5.40941L16.8977 5.57758C19.0346 9.75375 21.1152 14.014 23.0552 18.1902V18.2182C23.2801 18.6667 23.4769 19.1712 23.7019 19.6196C23.8425 19.956 23.983 20.2362 24.0674 20.5165C24.2923 21.2452 24.3767 21.9459 24.2642 22.6747Z" fill="#777777"/>
</g>
<defs>
<clipPath id="clip0_393_285">
<rect width="90" height="28" fill="white"/>
</clipPath>
</defs>
</svg>
