<svg width="90" height="28" viewBox="0 0 90 28" fill="none" xmlns="http://www.w3.org/2000/svg">
<g clip-path="url(#clip0_393_289)">
<path d="M55.8218 21.8745C50.598 25.8433 43.0264 27.9608 36.5074 27.9608C27.3667 27.9608 19.1378 24.476 12.9123 18.6801C12.4231 18.2243 12.8614 17.6032 13.4483 17.9581C20.1669 21.9874 28.4741 24.4115 37.0552 24.4115C42.8425 24.4115 49.2089 23.1773 55.0627 20.6161C55.947 20.2289 56.6866 21.213 55.8218 21.8745Z" fill="#AAAAAA"/>
<path d="M57.9936 19.3133C57.3284 18.434 53.5798 18.8978 51.8972 19.1035C51.3846 19.1681 51.3063 18.7083 51.7681 18.3775C54.7537 16.2116 59.6527 16.8368 60.224 17.5628C60.7953 18.2928 60.0753 23.3547 57.2697 25.7707C56.8393 26.1418 56.4284 25.9441 56.6201 25.4521C57.2501 23.8306 58.6627 20.1966 57.9936 19.3133Z" fill="#AAAAAA"/>
<path d="M52.0146 3.08704V0.981622C52.0146 0.662986 52.2493 0.449219 52.5311 0.449219H61.6757C61.9691 0.449219 62.2039 0.66702 62.2039 0.981622V2.78453C62.2 3.08704 61.9535 3.4823 61.5152 4.10748L56.7766 11.0812C58.5375 11.0368 60.3961 11.307 61.9926 12.2347C62.3526 12.4444 62.4504 12.751 62.4778 13.0535V15.3001C62.4778 15.6066 62.1491 15.9656 61.8048 15.78C58.9914 14.2594 55.2545 14.0941 52.1437 15.7962C51.8267 15.9736 51.4941 15.6187 51.4941 15.3122V13.1785C51.4941 12.8357 51.4981 12.2508 51.8307 11.7305L57.3205 3.61541H52.5428C52.2493 3.61541 52.0146 3.40164 52.0146 3.08704Z" fill="#777777"/>
<path d="M18.6565 16.2237H15.8744C15.6083 16.2035 15.397 15.9978 15.3774 15.7356V1.0179C15.3774 0.723461 15.6161 0.489524 15.9135 0.489524H18.5078C18.7778 0.501617 18.993 0.715392 19.0126 0.981594V2.90551H19.0635C19.7404 1.04613 21.0121 0.178955 22.726 0.178955C24.4673 0.178955 25.5551 1.04613 26.3376 2.90551C27.0107 1.04613 28.5406 0.178955 30.1802 0.178955C31.3462 0.178955 32.6219 0.675058 33.4005 1.78827C34.281 3.02651 34.101 4.82539 34.101 6.40243L34.0971 15.6913C34.0971 15.9857 33.8584 16.2237 33.561 16.2237H30.7828C30.505 16.2035 30.2819 15.9736 30.2819 15.6913V7.89074C30.2819 7.2696 30.3367 5.72079 30.2037 5.13192C29.9963 4.14375 29.3741 3.86545 28.568 3.86545C27.895 3.86545 27.1907 4.32928 26.905 5.07142C26.6194 5.81356 26.6468 7.05583 26.6468 7.89074V15.6913C26.6468 15.9857 26.4081 16.2237 26.1107 16.2237H23.3325C23.0508 16.2035 22.8316 15.9736 22.8316 15.6913L22.8277 7.89074C22.8277 6.24916 23.0899 3.83318 21.1138 3.83318C19.1143 3.83318 19.1926 6.18866 19.1926 7.89074V15.6913C19.1926 15.9857 18.9539 16.2237 18.6565 16.2237Z" fill="#777777"/>
<path d="M70.0768 0.178955C74.205 0.178955 76.4393 3.83318 76.4393 8.47961C76.4393 12.9687 73.9702 16.5302 70.0768 16.5302C66.023 16.5302 63.816 12.876 63.816 8.32231C63.816 3.74041 66.0503 0.178955 70.0768 0.178955ZM70.1003 3.18381C68.0499 3.18381 67.9207 6.06363 67.9207 7.85848C67.9207 9.65735 67.8934 13.4971 70.0768 13.4971C72.2328 13.4971 72.3346 10.3995 72.3346 8.51188C72.3346 7.2696 72.2837 5.78533 71.9198 4.60758C71.6068 3.58311 70.9846 3.18381 70.1003 3.18381Z" fill="#777777"/>
<path d="M81.7922 16.2237H79.0219C78.744 16.2035 78.521 15.9736 78.521 15.6913L78.5171 0.969494C78.5406 0.699258 78.7714 0.489524 79.0532 0.489524H81.6318C81.8744 0.501617 82.074 0.671026 82.1287 0.900927V3.15154H82.1796C82.9583 1.1389 84.05 0.178955 85.9713 0.178955C87.2195 0.178955 88.4364 0.642792 89.219 1.9133C89.9468 3.09104 89.9469 5.07142 89.9469 6.4952V15.7598C89.9155 16.018 89.6847 16.2237 89.4108 16.2237H86.6208C86.3665 16.2035 86.1552 16.0099 86.1278 15.7598V7.76571C86.1278 6.1564 86.3078 3.80091 84.3865 3.80091C83.7096 3.80091 83.0874 4.26878 82.7783 4.97865C82.387 5.87809 82.3361 6.7735 82.3361 7.76571V15.6913C82.3322 15.9857 82.0896 16.2237 81.7922 16.2237Z" fill="#777777"/>
<path d="M44.7248 9.19357V8.57243C42.7135 8.57243 40.5888 9.0161 40.5888 11.4603C40.5888 12.6986 41.2109 13.5375 42.2792 13.5375C43.0617 13.5375 43.7622 13.0414 44.2043 12.2347C44.7521 11.2425 44.7248 10.3108 44.7248 9.19357ZM47.5303 16.1834C47.3464 16.3528 47.0804 16.3649 46.873 16.252C45.9495 15.4614 45.7852 15.0944 45.2765 14.3401C43.7504 15.9454 42.6705 16.4254 40.6905 16.4254C38.3505 16.4254 36.5271 14.9371 36.5271 11.9564C36.5271 9.62918 37.7519 8.04406 39.4931 7.26966C41.0035 6.58398 43.1126 6.46299 44.7248 6.27342V5.90235C44.7248 5.22071 44.7756 4.41404 44.3882 3.82517C44.0478 3.2968 43.3983 3.079 42.827 3.079C41.7666 3.079 40.8196 3.63963 40.5888 4.80124C40.5418 5.05938 40.3579 5.31348 40.1075 5.32558L37.4075 5.02711C37.1806 4.97468 36.9301 4.78511 36.9927 4.42614C37.6149 1.05425 40.5692 0.0378418 43.2144 0.0378418C44.5682 0.0378418 46.3369 0.408911 47.4051 1.46565C48.759 2.76843 48.6299 4.5068 48.6299 6.39845V10.8674C48.6299 12.2105 49.1699 12.7994 49.6786 13.5254C49.8586 13.7835 49.8977 14.0941 49.6707 14.2877C49.1034 14.7757 48.0938 15.6833 47.5382 16.1915L47.5303 16.1834Z" fill="#777777"/>
<path d="M8.25198 9.19357V8.57243C6.24071 8.57243 4.11597 9.0161 4.11597 11.4603C4.11597 12.6986 4.73813 13.5375 5.80637 13.5375C6.58897 13.5375 7.28938 13.0414 7.73155 12.2347C8.27936 11.2425 8.25198 10.3108 8.25198 9.19357ZM11.0576 16.1834C10.8737 16.3528 10.6076 16.3649 10.4002 16.252C9.47673 15.4614 9.31239 15.0944 8.8037 14.3401C7.27765 15.9454 6.19767 16.4254 4.21771 16.4254C1.87776 16.4254 0.0543213 14.9371 0.0543213 11.9564C0.0543213 9.62918 1.27908 8.04406 3.02035 7.26966C4.53075 6.58398 6.63983 6.46299 8.25198 6.27342V5.90235C8.25198 5.22071 8.30284 4.41404 7.91546 3.82517C7.57503 3.2968 6.92548 3.079 6.35419 3.079C5.29378 3.079 4.34684 3.63963 4.11597 4.80124C4.06902 5.05938 3.88511 5.31348 3.63468 5.32558L0.934738 5.02711C0.707785 4.97468 0.457356 4.78511 0.519963 4.42614C1.14212 1.05425 4.09641 0.0378418 6.74157 0.0378418C8.09546 0.0378418 9.86411 0.408911 10.9324 1.46565C12.2862 2.76843 12.1571 4.5068 12.1571 6.39845V10.8674C12.1571 12.2105 12.6971 12.7994 13.2058 13.5254C13.3858 13.7835 13.4249 14.0941 13.198 14.2877C12.6306 14.7757 11.621 15.6833 11.0654 16.1915L11.0576 16.1834Z" fill="#777777"/>
</g>
<defs>
<clipPath id="clip0_393_289">
<rect width="90" height="28" fill="white"/>
</clipPath>
</defs>
</svg>
