<svg width="90" height="31" viewBox="0 0 90 31" fill="none" xmlns="http://www.w3.org/2000/svg">
<path d="M19.0243 14.4979C19.0243 11.2929 16.9356 9.47227 13.9785 9.47227H12.1687V19.5269H13.927C16.6766 19.5269 19.0243 18.0055 19.0243 14.4979ZM51.217 18.1154L37.8843 28.804L25.699 19.0367C23.9406 23.3371 19.6918 26.3241 14.7987 26.3241H4.37001V2.6717H14.7987C20.2663 2.6717 24.2063 6.21144 25.6956 9.98278L37.8843 0.225655L42.3988 3.84316L31.228 12.7821L33.3748 14.4928L44.5424 5.55894L49.0635 9.1663L37.8943 18.1154L40.0378 19.8295L51.217 10.8787V2.6717H59.3212V19.4204H67.4055V26.3528H51.217V18.1154ZM77.6715 19.4238H85.7524V26.3528H69.559V2.6717H77.6715V19.4238Z" fill="#666666"/>
</svg>
