<svg width="97" height="31" viewBox="0 0 97 31" fill="none" xmlns="http://www.w3.org/2000/svg">
<path d="M6.51444 24.0905H2.89127V14.9861H0.423096V12.0219H2.89117V9.91265C2.89117 7.4132 3.98281 5.62061 7.59617 5.62061C8.3604 5.62061 9.56021 5.77588 9.56021 5.77588V8.5283H8.30002C7.01598 8.5283 6.51463 8.922 6.51463 10.0104V12.0219H9.51213L9.24521 14.9861H6.51454L6.51444 24.0905ZM14.8279 11.785C14.7751 11.785 14.7208 11.7869 14.667 11.7883C11.3074 11.7883 9.77031 14.3356 9.77031 17.9516C9.77031 22.5068 11.7642 24.33 14.6933 24.33C16.3692 24.33 17.4702 23.6189 18.1394 22.2921V24.0917H21.5856V12.0232H18.1394V13.8791C17.593 12.685 16.4612 11.7992 14.8279 11.785ZM15.7042 14.6368C17.1152 14.6368 17.9621 15.6289 17.9621 17.3164L17.9654 19.04C17.9654 20.1774 17.2659 21.508 15.7042 21.508C13.3032 21.508 13.3673 18.8948 13.3673 18.0244C13.3673 15.0967 14.6466 14.6368 15.7042 14.6368ZM22.9773 18.0581C22.9773 16.5915 22.9077 11.7929 29.11 11.7929C31.5997 11.7929 32.6393 12.5908 32.6393 12.5908L31.8038 15.2032C31.8038 15.2032 30.7655 14.6269 29.4126 14.6269C27.6798 14.6269 26.5742 15.6394 26.5742 17.421L26.5761 18.6984C26.5761 20.4103 27.6429 21.553 29.4162 21.553C30.6487 21.553 31.7846 20.9713 31.7846 20.9713L32.6181 23.5291C32.6181 23.5291 31.6675 24.3321 29.1274 24.3321C23.2218 24.3321 22.9774 20.0268 22.9774 18.0581H22.9773ZM52.8454 11.7883C56.2051 11.7883 57.7665 14.3356 57.7665 17.9516C57.7665 22.5068 55.7725 24.33 52.8434 24.33C51.1675 24.33 49.9287 23.619 49.2594 22.2921V24.0917L45.8567 24.0904V5.98756L49.4695 5.66994V13.7156C49.991 12.308 51.7045 11.7883 52.8454 11.7883ZM51.8325 14.6368C50.4215 14.6368 49.4695 15.6289 49.4695 17.3164L49.4662 19.04C49.4641 20.1774 50.1254 21.508 51.8325 21.508C54.2335 21.508 54.1693 18.8948 54.1693 18.0244C54.1693 15.0967 52.8902 14.6368 51.8325 14.6368ZM38.908 11.7983C35.0974 11.7983 33.0857 13.8925 33.0857 17.6142V18.3056C33.0857 23.136 35.9108 24.3796 39.2789 24.3796C42.5526 24.3796 44.0344 23.4566 44.0344 23.4566L43.3584 20.9986C43.3584 20.9986 41.6153 21.7462 39.712 21.7462C37.739 21.7462 36.8904 21.2393 36.6729 19.328H44.3233V17.3561C44.3233 13.319 42.0655 11.7982 38.9079 11.7982L38.908 11.7983ZM38.9998 14.2596C40.3189 14.2596 41.1736 15.0749 41.1267 16.9657H36.6795C36.7567 14.9756 37.6784 14.2596 38.9998 14.2596ZM64.9704 11.7817C61.0572 11.7817 58.9971 14.0045 58.9971 17.988C58.9971 23.4535 62.5483 24.3333 64.9769 24.3333C68.5323 24.3333 70.8977 22.4038 70.8977 18.0376C70.8977 13.4932 68.2381 11.7817 64.9704 11.7817ZM64.9212 14.6467C66.6418 14.6467 67.3237 15.9448 67.3237 17.4223V18.6927C67.3237 20.4827 66.3696 21.518 64.9146 21.518C63.5539 21.518 62.5975 20.5496 62.5975 18.6927V17.4223C62.5975 15.442 63.7355 14.6467 64.9212 14.6467ZM78.0952 11.7817C74.182 11.7817 72.1219 14.0045 72.1219 17.988C72.1219 23.4535 75.6731 24.3333 78.1017 24.3333C81.657 24.3333 84.0225 22.4038 84.0225 18.0376C84.0225 13.4932 81.3628 11.7817 78.0952 11.7817ZM78.046 14.6467C79.7667 14.6467 80.4484 15.9448 80.4484 17.4223V18.6927C80.4484 20.4827 79.4943 21.518 78.0394 21.518C76.6787 21.518 75.7223 20.5496 75.7223 18.6927V17.4223C75.7223 15.442 76.8603 14.6467 78.046 14.6467ZM85.3878 24.0905V5.98756L89.0112 5.67004V17.8037L92.606 12.022H96.4325L92.6825 18.0102L96.5769 24.0905H92.7395L89.0112 18.1865V24.0905H85.3878Z" fill="#777777"/>
</svg>
