<svg width="90" height="42" viewBox="0 0 90 42" fill="none" xmlns="http://www.w3.org/2000/svg">
<g clip-path="url(#clip0_393_242)">
<path d="M38.4672 22.7976C38.4672 27.1693 35.1083 30.3907 30.9862 30.3907C26.8641 30.3907 23.5052 27.1693 23.5052 22.7976C23.5052 18.3952 26.8641 15.2046 30.9862 15.2046C35.1083 15.2046 38.4672 18.3952 38.4672 22.7976ZM35.1924 22.7976C35.1924 20.0658 33.2456 18.1966 30.9862 18.1966C28.7268 18.1966 26.7801 20.0658 26.7801 22.7976C26.7801 25.5021 28.7268 27.3986 30.9862 27.3986C33.2456 27.3986 35.1924 25.4987 35.1924 22.7976Z" fill="#858585"/>
<path d="M54.6059 22.7976C54.6059 27.1693 51.2471 30.3907 47.125 30.3907C43.0029 30.3907 39.644 27.1693 39.644 22.7976C39.644 18.3986 43.0029 15.2046 47.125 15.2046C51.2471 15.2046 54.6059 18.3952 54.6059 22.7976ZM51.3311 22.7976C51.3311 20.0658 49.3844 18.1966 47.125 18.1966C44.8655 18.1966 42.9188 20.0658 42.9188 22.7976C42.9188 25.5021 44.8655 27.3986 47.125 27.3986C49.3844 27.3986 51.3311 25.4987 51.3311 22.7976Z" fill="#CDCDCD"/>
<path d="M70.0722 15.6633V29.2952C70.0722 34.9027 66.8242 37.1929 62.9846 37.1929C59.3702 37.1929 57.1948 34.7315 56.3744 32.7185L59.2256 31.5101C59.7333 32.7459 60.9773 34.2043 62.9812 34.2043C65.439 34.2043 66.9621 32.6603 66.9621 29.7539V28.6618H66.8478C66.1148 29.5827 64.7027 30.3872 62.9207 30.3872C59.192 30.3872 55.7759 27.0803 55.7759 22.825C55.7759 18.539 59.192 15.2046 62.9207 15.2046C64.6993 15.2046 66.1115 16.0091 66.8478 16.9026H66.9621V15.6667H70.0722V15.6633ZM67.1941 22.825C67.1941 20.1514 65.4424 18.1966 63.2132 18.1966C60.9538 18.1966 59.0608 20.1514 59.0608 22.825C59.0608 25.4713 60.9538 27.3986 63.2132 27.3986C65.4424 27.3986 67.1941 25.4713 67.1941 22.825Z" fill="#666666"/>
<path d="M75.1996 7.67285V29.9247H72.0054V7.67285H75.1996Z" fill="#A4A4A4"/>
<path d="M87.6466 25.2967L90.1885 27.0221C89.3681 28.2579 87.3911 30.3872 83.9751 30.3872C79.7386 30.3872 76.5748 27.0529 76.5748 22.7942C76.5748 18.2788 79.7655 15.2012 83.6086 15.2012C87.4785 15.2012 89.3714 18.337 89.9901 20.0315L90.3297 20.8942L80.3606 25.0981C81.1239 26.6215 82.3107 27.3986 83.9751 27.3986C85.6427 27.3986 86.7993 26.5633 87.6466 25.2967ZM79.8227 22.5648L86.4866 19.7474C86.1202 18.7991 85.0173 18.1384 83.7195 18.1384C82.0552 18.1384 79.7386 19.6344 79.8227 22.5648Z" fill="#858585"/>
<path d="M11.4146 20.8224V17.601H22.0763C22.1805 18.1624 22.2343 18.8266 22.2343 19.5455C22.2343 21.9624 21.5854 24.951 19.4941 27.0803C17.4599 29.237 14.8609 30.3873 11.418 30.3873C5.03648 30.3873 -0.329651 25.0948 -0.329651 18.5972C-0.329651 12.0997 5.03648 6.80713 11.418 6.80713C14.9484 6.80713 17.4633 8.21756 19.3529 10.0559L17.1204 12.329C15.7654 11.035 13.9296 10.0285 11.4146 10.0285C6.75458 10.0285 3.10992 13.8524 3.10992 18.5972C3.10992 23.342 6.75458 27.1659 11.4146 27.1659C14.4373 27.1659 16.1588 25.9301 17.2616 24.8072C18.1559 23.8966 18.7443 22.5957 18.9763 20.819L11.4146 20.8224Z" fill="#666666"/>
</g>
<defs>
<clipPath id="clip0_393_242">
<rect width="90" height="42" fill="white"/>
</clipPath>
</defs>
</svg>
