<svg width="93" height="32" viewBox="0 0 93 32" fill="none" xmlns="http://www.w3.org/2000/svg">
<path d="M7.16991 5.23808C5.3752 5.96186 3.40221 8.00661 2.77908 10.5732C1.98993 13.8252 5.27395 15.2004 5.54331 14.7495C5.86034 14.2197 4.95485 14.0405 4.76846 12.3532C4.52757 10.174 5.57916 7.73886 6.90261 6.67041C7.14862 6.4719 7.13692 6.74819 7.13692 7.25924C7.13692 8.17312 7.08451 16.3771 7.08451 18.0892C7.08451 20.406 6.98518 21.1376 6.8068 21.8605C6.62606 22.5931 6.33549 23.0881 6.55567 23.2788C6.80166 23.4921 7.85198 22.9847 8.46002 22.1671C9.18915 21.1865 9.44438 20.0089 9.4902 18.73C9.54555 17.1883 9.54319 14.742 9.54555 13.3466C9.54776 12.0669 9.56793 8.31949 9.52227 6.06669C9.51107 5.51412 7.92046 4.9344 7.16982 5.23741M70.9 16.0804C70.8421 17.2849 70.5654 18.2263 70.2219 18.8903C69.5571 20.1759 68.1774 20.5751 67.5916 18.7271C67.2723 17.7197 67.2574 16.0373 67.487 14.6316C67.7206 13.1995 68.3729 12.118 69.4531 12.2155C70.5186 12.3119 71.0173 13.6347 70.9 16.0804ZM52.9382 23.5531C52.9237 25.5543 52.5968 27.309 51.8958 27.8186C50.9015 28.5413 49.565 27.9992 49.8418 26.5389C50.0866 25.2466 51.2446 23.9269 52.941 22.3144C52.941 22.3144 52.9445 22.6821 52.9382 23.5531ZM52.6666 16.0688C52.6058 17.1658 52.3106 18.2678 51.9886 18.8905C51.3239 20.176 49.9341 20.5779 49.3582 18.7272C48.9645 17.4627 49.0588 15.8261 49.2536 14.7949C49.5064 13.457 50.1192 12.2158 51.2198 12.2158C52.2898 12.2158 52.8175 13.3467 52.6666 16.0688ZM42.2613 16.052C42.1961 17.2138 41.9609 18.1851 41.5833 18.8905C40.9003 20.1672 39.5489 20.5721 38.953 18.7272C38.5233 17.3969 38.6696 15.583 38.8483 14.6031C39.1135 13.149 39.7777 12.1181 40.8145 12.2158C41.8795 12.3161 42.3973 13.6347 42.2613 16.052ZM89.9464 17.4091C89.6861 17.4091 89.5672 17.6676 89.469 18.1028C89.128 19.6161 88.7697 19.9578 88.3076 19.9578C87.7913 19.9578 87.3274 19.2085 87.2082 17.7085C87.1144 16.5291 87.1295 14.3577 87.2493 12.1978C87.2738 11.754 87.1468 11.3149 85.9113 10.8825C85.3796 10.6965 84.6069 10.4226 84.2221 11.3174C83.135 13.8455 82.7096 15.8526 82.6095 16.6679C82.6043 16.7101 82.5506 16.7188 82.5412 16.6202C82.4774 15.9671 82.3349 14.7804 82.3171 12.2872C82.3137 11.8008 82.2068 11.3867 81.6495 11.0477C81.2878 10.8277 80.1898 10.4387 79.7944 10.9015C79.4518 11.28 79.0551 12.2987 78.6429 13.5062C78.3079 14.4877 78.0745 15.1516 78.0745 15.1516C78.0745 15.1516 78.0789 12.5035 78.0829 11.499C78.0847 11.1201 77.8149 10.9938 77.7336 10.9709C77.3674 10.8685 76.646 10.6975 76.3397 10.6975C75.9619 10.6975 75.8694 10.9009 75.8694 11.1974C75.8694 11.2362 75.8097 14.6839 75.8097 17.0947C75.8097 17.1994 75.8097 17.3136 75.8108 17.435C75.6018 18.543 74.9241 20.0471 74.187 20.0471C73.4491 20.0471 73.1009 19.4183 73.1009 16.5443C73.1009 14.8677 73.1532 14.1386 73.1789 12.926C73.1938 12.2275 73.2225 11.6912 73.2209 11.5695C73.2155 11.1962 72.5456 11.0081 72.2338 10.9385C71.9206 10.8684 71.6485 10.8413 71.436 10.8529C71.1352 10.8693 70.9224 11.0594 70.9224 11.3209C70.9224 11.4611 70.924 11.7277 70.924 11.7277C70.5366 11.1412 69.9135 10.7329 69.4989 10.6146C68.3822 10.2951 67.217 10.5782 66.3381 11.7631C65.6395 12.7046 65.2185 13.7709 65.0527 15.3029C64.9315 16.4229 64.9711 17.5587 65.1864 18.5192C64.9262 19.6031 64.4432 20.0471 63.9142 20.0471C63.1463 20.0471 62.5896 18.8395 62.6542 16.751C62.6969 15.3774 62.9822 14.4134 63.294 13.0187C63.427 12.4242 63.319 12.1129 63.048 11.8146C62.7994 11.541 62.2699 11.4012 61.5086 11.5732C60.9664 11.6957 60.1911 11.8275 59.4818 11.9288C59.4818 11.9288 59.5246 11.7643 59.5597 11.4742C59.7442 9.95299 58.0284 10.0764 57.481 10.5623C57.1543 10.8524 56.9318 11.1945 56.8474 11.8096C56.7135 12.7858 57.5399 13.2462 57.5399 13.2462C57.2688 14.4419 56.6042 16.0039 55.918 17.1333C55.5505 17.7383 55.2694 18.1867 54.9064 18.6633C54.9051 18.4858 54.9041 18.3084 54.9035 18.1317C54.8952 15.6178 54.9299 13.6393 54.9452 12.9262C54.9601 12.2278 54.9892 11.7056 54.9876 11.5839C54.9835 11.3109 54.818 11.2078 54.4738 11.0773C54.1695 10.9618 53.8097 10.8819 53.4364 10.854C52.9653 10.8186 52.6815 11.0594 52.6888 11.344C52.6903 11.3978 52.6903 11.7278 52.6903 11.7278C52.3029 11.1413 51.6797 10.733 51.2651 10.6147C50.1485 10.2954 48.9833 10.5785 48.1043 11.7632C47.4059 12.7047 46.9486 14.0258 46.819 15.2914C46.6983 16.4709 46.7205 17.4732 46.8851 18.3176C46.7076 19.1631 46.197 20.0472 45.6198 20.0472C44.8819 20.0472 44.462 19.4184 44.462 16.5444C44.462 14.8678 44.5142 14.1387 44.5399 12.9262C44.5548 12.2278 44.5836 11.6913 44.582 11.5697C44.5765 11.1964 43.9066 11.0083 43.5949 10.9386C43.2687 10.866 42.9871 10.8393 42.7709 10.8546C42.4856 10.8751 42.285 11.1212 42.285 11.3048V11.7278C41.8976 11.1413 41.2745 10.733 40.8599 10.6147C39.7432 10.2954 38.5845 10.583 37.6991 11.7632C37.1217 12.5328 36.6543 13.386 36.4137 15.2746C36.3442 15.8204 36.3135 16.3315 36.3175 16.8092C36.0872 18.1657 35.0703 19.7293 34.2385 19.7293C33.7517 19.7293 33.2882 18.8197 33.2882 16.8811C33.2882 14.2988 33.4541 10.6223 33.4821 10.2679C33.4821 10.2679 34.5331 10.2507 34.7366 10.2484C35.2609 10.2429 35.7357 10.2548 36.4339 10.2204C36.7841 10.2032 37.1215 8.99228 36.7601 8.84241C36.5963 8.77458 35.4384 8.71515 34.9794 8.70576C34.5935 8.69733 33.519 8.62073 33.519 8.62073C33.519 8.62073 33.6154 6.18037 33.6378 5.92258C33.6569 5.70772 33.3683 5.5971 33.2029 5.52997C32.8005 5.36603 32.4406 5.28753 32.0139 5.20278C31.4244 5.08562 31.157 5.20022 31.1047 5.67956C31.026 6.40704 30.9853 8.53782 30.9853 8.53782C30.5527 8.53782 29.075 8.45635 28.6423 8.45635C28.2403 8.45635 27.8064 10.1222 28.3622 10.1426C29.0017 10.1665 30.1162 10.1871 30.855 10.2086C30.855 10.2086 30.8221 13.9458 30.8221 15.0996C30.8221 15.2223 30.8232 15.3405 30.8234 15.4552C30.4168 17.4971 28.9846 18.6001 28.9846 18.6001C29.2922 17.2493 28.6639 16.2349 27.5321 15.3762C27.1152 15.0597 26.2921 14.4607 25.3711 13.8042C25.3711 13.8042 25.9045 13.2977 26.3775 12.2787C26.7127 11.5569 26.7272 10.7309 25.9045 10.5488C24.5452 10.2476 23.4244 11.2094 23.0901 12.2362C22.8311 13.0316 22.9692 13.6219 23.4766 14.235C23.5137 14.2798 23.5538 14.3256 23.5953 14.3717C23.2885 14.9415 22.8669 15.7086 22.5099 16.3035C21.519 17.9553 20.7704 19.2618 20.2047 19.2618C19.7525 19.2618 19.7585 17.9353 19.7585 16.6934C19.7585 15.6228 19.8406 14.0132 19.9061 12.3467C19.9278 11.7955 19.6418 11.4816 19.1623 11.1972C18.8709 11.0244 18.2491 10.6847 17.889 10.6847C17.35 10.6847 15.7948 10.7554 14.3254 14.8505C14.1402 15.3666 13.7765 16.3071 13.7765 16.3071L13.8078 11.3826C13.8078 11.2671 13.7439 11.1555 13.5978 11.0792C13.3502 10.9496 12.6888 10.6847 12.1008 10.6847C11.8206 10.6847 11.6808 10.8103 11.6808 11.0605L11.6295 18.7649C11.6295 19.3503 11.6453 20.0332 11.7054 20.3319C11.7653 20.631 11.8622 20.8743 11.9823 21.019C12.1022 21.1635 12.2409 21.2737 12.4696 21.3192C12.6825 21.3614 13.8481 21.5056 13.9086 21.0765C13.9812 20.5622 13.984 20.0059 14.596 17.9312C15.5489 14.7013 16.7912 13.1253 17.3752 12.5657C17.4773 12.4678 17.5939 12.462 17.5883 12.6221C17.5633 13.3303 17.4757 15.0997 17.4166 16.603C17.2584 20.626 18.0181 21.3716 19.1036 21.3716C19.9341 21.3716 21.1048 20.5766 22.3597 18.5642C23.1421 17.31 23.9018 16.0803 24.4476 15.194C24.8279 15.5332 25.2547 15.8983 25.6813 16.2883C26.6725 17.1947 26.9979 18.056 26.782 18.873C26.6169 19.4976 25.9949 20.1413 24.888 19.5157C24.5653 19.3331 24.4276 19.1921 24.1032 18.9863C23.9289 18.8758 23.6628 18.8427 23.5033 18.9586C23.0888 19.2596 22.8518 19.6425 22.7165 20.1166C22.5848 20.5779 23.0643 20.8218 23.5614 21.0351C23.9894 21.2186 24.9094 21.385 25.496 21.4039C27.7819 21.4776 29.6131 20.3406 30.8878 17.4077C31.116 19.9406 32.0871 21.3739 33.7744 21.3739C34.9024 21.3739 36.0334 19.9691 36.528 18.5872C36.67 19.1505 36.8802 19.6404 37.1516 20.0546C38.4517 22.0392 40.9739 21.6121 42.2408 19.9268C42.6325 19.4061 42.6921 19.219 42.6921 19.219C42.8769 20.8103 44.207 21.3663 44.9686 21.3663C45.8215 21.3663 46.7022 20.9778 47.3194 19.639C47.3917 19.7843 47.4707 19.9231 47.5569 20.0546C48.857 22.0392 51.3792 21.612 52.6461 19.9268C52.7059 19.8477 52.7577 19.776 52.803 19.7117L52.8402 20.7569C52.8402 20.7569 52.1174 21.3957 51.6738 21.7875C49.7211 23.5135 48.2364 24.823 48.1272 26.3479C47.9869 28.2922 49.6237 29.0149 50.862 29.1096C52.177 29.2101 53.3032 28.5102 53.9954 27.5308C54.6042 26.6687 55.0027 24.8132 54.9734 22.9805C54.9618 22.2467 54.9426 21.3136 54.9275 20.3134C55.6138 19.5455 56.3871 18.5751 57.099 17.4391C57.8749 16.2011 58.7064 14.5386 59.1322 13.2447C59.1322 13.2447 59.8547 13.2507 60.6257 13.2021C60.8723 13.1866 60.9432 13.2351 60.8976 13.4093C60.8425 13.6197 59.9235 17.035 60.7622 19.3101C61.3364 20.8675 62.6306 21.3686 63.3979 21.3686C64.2961 21.3686 65.1554 20.7151 65.6159 19.7446C65.6714 19.8528 65.7294 19.9575 65.7927 20.0542C67.0928 22.0388 69.6062 21.6091 70.8819 19.9264C71.1699 19.5467 71.3333 19.2185 71.3333 19.2185C71.607 20.8654 72.9364 21.3742 73.6978 21.3742C74.491 21.3742 75.2437 21.0609 75.8544 19.6687C75.8799 20.2817 75.9201 20.7829 75.9835 20.9409C76.0222 21.0376 76.2476 21.1589 76.4116 21.2175C77.1371 21.4767 77.8771 21.3541 78.1509 21.3008C78.3406 21.2638 78.4885 21.1172 78.5087 20.7387C78.5618 19.7448 78.5292 18.0748 78.8419 16.8337C79.3669 14.7509 79.8566 13.9429 80.0889 13.5429C80.219 13.3188 80.3657 13.2819 80.371 13.519C80.3819 13.9989 80.4067 15.4082 80.6101 17.3017C80.7594 18.6943 80.959 19.5174 81.1123 19.7779C81.5499 20.5228 82.0904 20.5581 82.5305 20.5581C82.8105 20.5581 83.396 20.4836 83.3436 20.0095C83.3181 19.7784 83.3628 18.3504 83.8804 16.2984C84.2184 14.9583 84.7819 13.7475 84.9851 13.3049C85.0601 13.1416 85.0949 13.2703 85.0937 13.2954C85.0509 14.2182 84.9549 17.2368 85.3451 18.8876C85.874 21.1241 87.4043 21.3743 87.9375 21.3743C89.0759 21.3743 90.0069 20.5401 90.3205 18.3449C90.3961 17.8166 90.2842 17.4087 89.949 17.4087" fill="#777777"/>
</svg>
