<svg width="66" height="26" viewBox="0 0 66 26" fill="none" xmlns="http://www.w3.org/2000/svg">
<g clip-path="url(#clip0_393_217)">
<path d="M5.47496 0.867188H0.784523V5.55352H5.47496V0.867188Z" fill="white"/>
<path d="M5.35812 25.283V8.3888H0.901367V25.2663H5.35812V25.283ZM34.8695 25.4497V21.3138C34.2185 21.3138 33.6677 21.2804 33.2671 21.2137C32.7997 21.147 32.4492 20.9802 32.2155 20.7467C31.9818 20.5132 31.8316 20.1797 31.7481 19.7294C31.6813 19.3125 31.648 18.7621 31.648 18.095V12.2079H34.8695V8.3888H31.648V1.81792H27.1912V18.1451C27.1912 19.5293 27.308 20.6967 27.5417 21.6306C27.7754 22.5479 28.176 23.2984 28.7269 23.8654C29.2777 24.4324 30.0121 24.8327 30.8968 25.0828C31.7982 25.333 32.9332 25.4497 34.2853 25.4497H34.8695ZM60.3748 25.283V0.51709H55.9181V25.283H60.3748ZM22.9014 10.0565C21.6662 8.72235 19.9302 8.05526 17.7269 8.05526C16.6586 8.05526 15.6737 8.27206 14.8058 8.70567C13.9211 9.13928 13.1866 9.73967 12.5857 10.5068L12.352 10.8237V10.5402V8.3888H7.96207V25.2663H12.3854V16.2772V16.8943C12.3854 16.7942 12.3854 16.6941 12.3854 16.5941C12.4355 15.0097 12.8194 13.8423 13.5539 13.0918C14.3384 12.2913 15.2898 11.891 16.3748 11.891C17.6601 11.891 18.6449 12.2913 19.2959 13.0585C19.9302 13.8256 20.264 14.9097 20.264 16.2939V16.3439V25.2663H24.7542V15.6935C24.7709 13.2919 24.1366 11.3907 22.9014 10.0565ZM53.6146 16.8109C53.6146 15.5934 53.3976 14.4594 52.9803 13.392C52.5463 12.3413 51.9454 11.4074 51.1942 10.6069C50.4264 9.80638 49.5084 9.18932 48.4401 8.73903C47.3718 8.28874 46.1866 8.07193 44.9014 8.07193C43.6829 8.07193 42.5311 8.30542 41.4628 8.75571C40.3945 9.22267 39.4598 9.83973 38.6753 10.6236C37.8907 11.4074 37.2565 12.3413 36.8058 13.4087C36.3384 14.476 36.1214 15.6268 36.1214 16.8442C36.1214 18.0617 36.3384 19.2124 36.7724 20.2798C37.2064 21.3471 37.824 22.281 38.5918 23.0649C39.3596 23.8487 40.3111 24.4825 41.4127 24.9327C42.5144 25.3997 43.7329 25.6332 45.0349 25.6332C48.8073 25.6332 51.1442 23.9154 52.5463 22.3144L49.3414 19.8795C48.6738 20.68 47.0713 21.764 45.0683 21.764C43.8164 21.764 42.7815 21.4805 41.997 20.8968C41.2124 20.3298 40.6783 19.5293 40.3945 18.5453L40.3445 18.3952H53.6146V16.8109ZM40.3778 15.2599C40.3778 14.0258 41.7967 11.8744 44.8513 11.8577C47.9059 11.8577 49.3414 14.0091 49.3414 15.2432L40.3778 15.2599ZM65.4492 23.1483C65.3657 22.9481 65.2489 22.7814 65.0986 22.6313C64.9484 22.4812 64.7815 22.3644 64.5812 22.281C64.3809 22.1977 64.1639 22.1476 63.9469 22.1476C63.7132 22.1476 63.5129 22.1977 63.3126 22.281C63.1123 22.3644 62.9454 22.4812 62.7951 22.6313C62.6449 22.7814 62.5281 22.9481 62.4446 23.1483C62.3612 23.3484 62.3111 23.5652 62.3111 23.782C62.3111 24.0155 62.3612 24.2156 62.4446 24.4157C62.5281 24.6159 62.6449 24.7826 62.7951 24.9327C62.9454 25.0828 63.1123 25.1996 63.3126 25.283C63.5129 25.3664 63.7299 25.4164 63.9469 25.4164C64.1806 25.4164 64.3809 25.3664 64.5812 25.283C64.7815 25.1996 64.9484 25.0828 65.0986 24.9327C65.2489 24.7826 65.3657 24.6159 65.4492 24.4157C65.5326 24.2156 65.5827 23.9988 65.5827 23.782C65.5827 23.5652 65.5326 23.3484 65.4492 23.1483ZM65.1821 24.3157C65.1153 24.4825 65.0152 24.6325 64.8983 24.7493C64.7815 24.866 64.6313 24.9661 64.4643 25.0328C64.2974 25.0995 64.1305 25.1329 63.9302 25.1329C63.7466 25.1329 63.563 25.0995 63.3961 25.0328C63.2291 24.9661 63.0789 24.866 62.9621 24.7493C62.8452 24.6325 62.7451 24.4825 62.6783 24.3157C62.6115 24.1489 62.5781 23.9821 62.5781 23.782C62.5781 23.5986 62.6115 23.4151 62.6783 23.2483C62.7451 23.0816 62.8452 22.9315 62.9621 22.8147C63.0789 22.698 63.2291 22.5979 63.3961 22.5312C63.563 22.4645 63.7299 22.4311 63.9302 22.4311C64.1138 22.4311 64.2974 22.4645 64.4643 22.5312C64.6313 22.5979 64.7815 22.698 64.8983 22.8147C65.0152 22.9315 65.1153 23.0816 65.1821 23.2483C65.2489 23.4151 65.2822 23.5819 65.2822 23.782C65.2822 23.9821 65.2489 24.1489 65.1821 24.3157ZM64.2473 23.9321C64.3809 23.9154 64.481 23.8654 64.5645 23.782C64.648 23.6986 64.698 23.5819 64.698 23.4151C64.698 23.2317 64.648 23.0982 64.5311 22.9982C64.431 22.8981 64.2473 22.8481 64.0304 22.8481H63.2959V24.7326H63.6464V23.9655H63.8968L64.3642 24.7326H64.7314L64.2473 23.9321ZM64.0637 23.6486C64.0137 23.6486 63.9636 23.6486 63.8968 23.6486H63.6464V23.1149H63.8968C63.9469 23.1149 63.997 23.1149 64.0637 23.1149C64.1138 23.1149 64.1639 23.1316 64.214 23.1483C64.264 23.1649 64.2974 23.1983 64.3141 23.2317C64.3475 23.265 64.3475 23.315 64.3475 23.3817C64.3475 23.4485 64.3308 23.4985 64.3141 23.5318C64.2807 23.5652 64.2473 23.5986 64.214 23.6152C64.1639 23.6319 64.1138 23.6486 64.0637 23.6486Z" fill="#666666"/>
</g>
<defs>
<clipPath id="clip0_393_217">
<rect width="66" height="26" fill="white"/>
</clipPath>
</defs>
</svg>
