<svg width="90" height="20" viewBox="0 0 90 20" fill="none" xmlns="http://www.w3.org/2000/svg">
<g clip-path="url(#clip0_393_220)">
<path d="M37.4289 3.99997V16H35.4295V6.58331H35.4028L31.8306 16H30.4976L26.8454 6.58331H26.8187V16H24.9793V3.99997H27.8584L31.1641 12.8889H31.2174L34.7097 3.99997H37.4289ZM39.0818 4.91664C39.0818 4.58331 39.1884 4.30553 39.4283 4.08331C39.6682 3.86108 39.9348 3.74997 40.2547 3.74997C40.6013 3.74997 40.8945 3.86108 41.1078 4.08331C41.3211 4.30553 41.4544 4.58331 41.4544 4.91664C41.4544 5.24997 41.3477 5.52775 41.1078 5.74997C40.8679 5.9722 40.6013 6.08331 40.2547 6.08331C39.9082 6.08331 39.6416 5.9722 39.4283 5.74997C39.215 5.49997 39.0818 5.2222 39.0818 4.91664ZM41.2411 7.38886V16H39.295V7.38886H41.2411ZM47.1327 14.5278C47.4259 14.5278 47.7458 14.4722 48.0924 14.3055C48.439 14.1666 48.7589 13.9722 49.0521 13.75V15.6389C48.7322 15.8333 48.3857 15.9722 47.9858 16.0555C47.5859 16.1389 47.1594 16.1944 46.6795 16.1944C45.4532 16.1944 44.4668 15.8055 43.7204 15C42.9473 14.1944 42.574 13.1666 42.574 11.9444C42.574 10.5555 42.9739 9.41664 43.747 8.52775C44.5201 7.63886 45.6132 7.19442 47.0527 7.19442C47.4259 7.19442 47.7992 7.24997 48.1457 7.33331C48.519 7.41664 48.8122 7.55553 49.0255 7.66664V9.61108C48.7322 9.38886 48.4123 9.19442 48.1191 9.08331C47.7992 8.9722 47.4793 8.88886 47.1594 8.88886C46.3863 8.88886 45.7731 9.13886 45.2932 9.66664C44.8134 10.1944 44.6001 10.8889 44.6001 11.7778C44.6001 12.6389 44.84 13.3333 45.2932 13.8055C45.7464 14.2778 46.3596 14.5278 47.1327 14.5278ZM54.5705 7.24997C54.7304 7.24997 54.8637 7.24997 54.997 7.27775C55.1303 7.30553 55.237 7.33331 55.3169 7.36108V9.41664C55.2103 9.33331 55.077 9.24997 54.8637 9.19442C54.6505 9.13886 54.4372 9.08331 54.144 9.08331C53.6641 9.08331 53.2642 9.30553 52.9443 9.7222C52.6244 10.1389 52.4378 10.7778 52.4378 11.6666V16H50.4917V7.38886H52.4378V8.74997H52.4645C52.6511 8.27775 52.9177 7.91664 53.2642 7.63886C53.6374 7.38886 54.064 7.24997 54.5705 7.24997ZM55.4236 11.8333C55.4236 10.4166 55.8235 9.27775 56.5699 8.44442C57.343 7.61108 58.4094 7.19442 59.769 7.19442C61.0486 7.19442 62.0616 7.58331 62.7814 8.38886C63.5012 9.19442 63.8744 10.2778 63.8744 11.6389C63.8744 13.0278 63.4745 14.1389 62.7281 14.9722C61.955 15.8055 60.9153 16.2222 59.5823 16.2222C58.3027 16.2222 57.2897 15.8333 56.5432 15.0555C55.7968 14.25 55.4236 13.1666 55.4236 11.8333ZM57.4496 11.75C57.4496 12.6389 57.6363 13.3333 58.0361 13.8055C58.436 14.2778 58.9959 14.5278 59.7156 14.5278C60.4088 14.5278 60.9686 14.3055 61.3418 13.8055C61.715 13.3333 61.9017 12.6389 61.9017 11.6944C61.9017 10.7778 61.715 10.0833 61.3418 9.58331C60.9686 9.11108 60.4088 8.86108 59.7423 8.86108C59.0225 8.86108 58.4893 9.11108 58.0895 9.61108C57.6363 10.1389 57.4496 10.8333 57.4496 11.75ZM66.7802 9.66664C66.7802 9.94442 66.8602 10.1944 67.0468 10.3611C67.2334 10.5278 67.6066 10.7222 68.2198 10.9722C68.9929 11.3055 69.5527 11.6666 69.846 12.0555C70.1659 12.4722 70.3258 12.9444 70.3258 13.5278C70.3258 14.3333 70.0326 14.9722 69.4194 15.4722C68.8329 15.9722 68.0065 16.1944 66.9935 16.1944C66.6469 16.1944 66.2737 16.1389 65.8472 16.0555C65.4206 15.9722 65.0741 15.8611 64.7808 15.7222V13.7222C65.1274 13.9722 65.5273 14.1944 65.9271 14.3333C66.327 14.4722 66.7002 14.5555 67.0468 14.5555C67.4733 14.5555 67.8199 14.5 68.0065 14.3611C68.2198 14.2222 68.3264 14.0278 68.3264 13.7222C68.3264 13.4444 68.2198 13.2222 68.0065 13C67.7932 12.8055 67.3667 12.5833 66.7802 12.3333C66.0604 12.0278 65.5539 11.6666 65.2607 11.2778C64.9674 10.8889 64.8075 10.3889 64.8075 9.77775C64.8075 8.99997 65.1007 8.36108 65.6872 7.86108C66.2737 7.36108 67.0468 7.11108 67.9799 7.11108C68.2731 7.11108 68.593 7.13886 68.9396 7.2222C69.2861 7.30553 69.606 7.38886 69.846 7.4722V9.44442C69.5794 9.27775 69.2861 9.11108 68.9396 8.97219C68.593 8.83331 68.2464 8.77775 67.9265 8.77775C67.5533 8.77775 67.2601 8.86108 67.0735 8.99997C66.8868 9.19442 66.7802 9.38886 66.7802 9.66664ZM71.1522 11.8333C71.1522 10.4166 71.5521 9.27775 72.2986 8.44442C73.0717 7.61108 74.138 7.19442 75.4976 7.19442C76.7773 7.19442 77.7903 7.58331 78.5101 8.38886C79.2299 9.19442 79.6031 10.2778 79.6031 11.6389C79.6031 13.0278 79.2032 14.1389 78.4567 14.9722C77.6836 15.8055 76.644 16.2222 75.311 16.2222C74.0314 16.2222 73.0184 15.8333 72.2719 15.0555C71.5521 14.25 71.1522 13.1666 71.1522 11.8333ZM73.1783 11.75C73.1783 12.6389 73.3649 13.3333 73.7648 13.8055C74.1647 14.2778 74.7245 14.5278 75.4443 14.5278C76.1374 14.5278 76.6973 14.3055 77.0705 13.8055C77.4437 13.3333 77.6303 12.6389 77.6303 11.6944C77.6303 10.7778 77.4437 10.0833 77.0705 9.58331C76.6973 9.11108 76.1374 8.86108 75.471 8.86108C74.7512 8.86108 74.218 9.11108 73.8181 9.61108C73.3916 10.1389 73.1783 10.8333 73.1783 11.75ZM86.0812 9.05553H83.1754V16H81.2026V9.05553H79.8163V7.38886H81.2026V6.19442C81.2026 5.30553 81.4958 4.55553 82.0557 3.9722C82.6155 3.38886 83.3353 3.11108 84.215 3.11108C84.455 3.11108 84.6682 3.13886 84.8549 3.13886C85.0415 3.13886 85.2014 3.19442 85.3347 3.24997V4.99997C85.2814 4.9722 85.1481 4.91664 84.9881 4.86108C84.8282 4.80553 84.6416 4.77775 84.4283 4.77775C84.0284 4.77775 83.7085 4.91664 83.4953 5.16664C83.282 5.41664 83.1754 5.83331 83.1754 6.33331V7.36108H86.0812V5.41664L88.0273 4.80553V7.36108H90V9.02775H88.0273V13.0555C88.0273 13.5833 88.1339 13.9444 88.2938 14.1666C88.4805 14.3889 88.7737 14.5 89.1736 14.5C89.2802 14.5 89.4135 14.4722 89.5735 14.4166C89.7334 14.3611 89.8667 14.3055 89.9733 14.2222V15.8889C89.84 15.9722 89.6534 16.0278 89.3602 16.0833C89.0669 16.1389 88.8004 16.1666 88.5071 16.1666C87.6807 16.1666 87.0675 15.9444 86.6677 15.5C86.2678 15.0555 86.0545 14.3611 86.0545 13.4444L86.0812 9.05553Z" fill="#666666"/>
<path d="M9.1173 0H0V9.5H9.1173V0Z" fill="#666666"/>
<path d="M19.1943 0H10.077V9.5H19.1943V0Z" fill="#777777"/>
<path d="M9.1173 10.5H0V20H9.1173V10.5Z" fill="#9F9F9F"/>
<path d="M19.1943 10.5H10.077V20H19.1943V10.5Z" fill="#D3D3D3"/>
</g>
<defs>
<clipPath id="clip0_393_220">
<rect width="90" height="20" fill="white"/>
</clipPath>
</defs>
</svg>
