<svg width="90" height="35" viewBox="0 0 90 35" fill="none" xmlns="http://www.w3.org/2000/svg">
<path fill-rule="evenodd" clip-rule="evenodd" d="M47.8019 28.5739H59.7885C61.5796 28.5739 63.0494 27.839 64.2433 26.3687C65.3914 24.9451 65.9886 23.246 65.9886 21.3176C65.9886 17.4138 60.9829 14.6581 59.0531 14.6581H52.486C51.9808 14.6581 51.5667 14.4284 51.2459 14.0614C50.9242 13.6477 50.7407 13.1887 50.7407 12.6373C50.7407 11.9943 50.9242 11.4434 51.2459 10.984C51.6133 10.525 52.0723 10.2495 52.6237 10.2495H64.932V5.33479H52.3936C50.143 5.33479 48.3973 6.02395 47.1571 7.35558C46.0557 8.5957 45.5038 10.249 45.5038 12.2241C45.5038 14.1529 46.0557 15.8524 47.1571 17.2294C48.3973 18.745 49.8676 19.5266 51.6586 19.5266H59.2371C59.6956 19.5266 60.0635 19.6643 60.3385 20.0308C60.6602 20.3983 60.798 20.8577 60.798 21.3634C60.798 21.9606 60.5682 22.5115 60.2008 22.971C59.7876 23.3842 59.3281 23.6139 58.7319 23.6139H46.6071L46.4236 23.2922L41.8768 8.68768L41.6471 8.22824C40.5447 5.97773 38.7079 4.87582 36.1819 4.87582C34.8041 4.87582 33.5639 5.19705 32.4616 5.88621C31.3134 6.57491 30.5785 7.5853 30.1653 8.87165L24.0567 28.5277L29.6139 28.5744L35.2168 11.0764C35.3546 10.525 35.6763 10.2495 36.0895 10.2495C36.3192 10.2495 36.5027 10.341 36.6404 10.4792C36.7782 10.6627 36.8701 10.8467 36.9159 11.0764L42.5646 28.5744L47.8019 28.5739ZM6.46721 12.4995V28.5277H1.32324V10.7542C1.32324 8.45796 1.87466 6.85038 3.06856 5.88621C3.98697 5.19705 5.36483 4.82959 7.29364 4.82959C8.85499 4.82959 10.1871 5.28903 11.381 6.16169C12.5749 7.03435 13.3556 8.22824 13.7692 9.69808L17.1217 21.5011L17.6731 23.1087C17.7188 23.4299 17.9028 23.6597 18.0863 23.8427C18.316 24.0271 18.5453 24.1191 18.8212 24.0271C19.2807 23.9814 19.5104 23.7054 19.5104 23.2922V5.38101H24.7921V23.0625C24.7921 25.0375 24.3331 26.5078 23.3685 27.564C22.4501 28.6201 21.0722 29.1716 19.2349 29.1716C17.6273 29.1716 16.2952 28.8499 15.2391 28.2989C13.9532 27.656 13.1263 26.6456 12.7588 25.313L8.90122 11.8566L8.62574 10.984C8.53376 10.6627 8.35026 10.433 8.12054 10.2033C7.89082 10.0193 7.61534 9.97356 7.33986 10.0193C7.06439 10.0655 6.88089 10.2033 6.69693 10.4788C6.54593 10.7279 6.46645 11.0138 6.46721 11.3052V12.4995ZM88.6768 28.5739L82.7064 8.68768L82.4767 8.22824C81.3743 5.97773 79.5375 4.87582 77.0115 4.87582C75.6336 4.87582 74.3935 5.19705 73.2916 5.88621C72.1425 6.57491 71.4085 7.5853 70.9944 8.87165L64.8862 28.5277L70.4434 28.5744L76.0464 11.0764C76.1841 10.525 76.5058 10.2495 76.919 10.2495C77.1487 10.2495 77.3322 10.341 77.47 10.4792C77.6086 10.6627 77.6997 10.8467 77.7464 11.0764L83.3951 28.5744L88.6768 28.5739Z" fill="#777777"/>
</svg>
