<svg width="90" height="24" viewBox="0 0 90 24" fill="none" xmlns="http://www.w3.org/2000/svg">
<g clip-path="url(#clip0_393_283)">
<path d="M12.3753 22.453C11.0214 22.6876 9.64371 22.7579 8.21856 22.9453L3.87167 10.3829V23.4844C2.5178 23.625 1.28268 23.8125 0 24V0H3.61055L8.55105 13.6174V0H12.3753V22.453ZM19.8575 8.78907C21.3303 8.78907 23.5868 8.71873 24.9406 8.71873V12.4687C23.2541 12.4687 21.2827 12.4687 19.8575 12.539V18.1172C22.0903 17.9766 24.3231 17.789 26.5795 17.7186V21.3278L16.0569 22.1483V0H26.5795V3.75001H19.8575V8.78907ZM40.7125 3.75009H36.7696V21.0001C35.4869 21.0001 34.2042 21.0001 32.9693 21.0468V3.75009H29.0263V0H40.7127L40.7125 3.75009ZM46.8882 8.53133H52.0902V12.2812H46.8882V20.7892H43.1588V0H53.7767V3.75001H46.8882V8.53133ZM59.9524 17.5078C62.114 17.5545 64.2991 17.7189 66.4132 17.8359V21.5391C63.0166 21.328 59.6199 21.1173 56.152 21.0468V0H59.9524V17.5078ZM69.6198 21.7969C70.8312 21.8673 72.1139 21.9376 73.349 22.078V0H69.6198V21.7969ZM90 0L85.1781 11.4141L90 24C88.5747 23.8125 87.1495 23.5547 85.7243 23.3203L82.9928 16.3829L80.214 22.7579C78.836 22.5234 77.5059 22.453 76.1285 22.2655L81.0215 11.2733L76.6034 0H80.6887L83.1828 6.3047L85.8432 0L90 0Z" fill="#777777"/>
</g>
<defs>
<clipPath id="clip0_393_283">
<rect width="90" height="24" fill="white"/>
</clipPath>
</defs>
</svg>
