<svg width="90" height="23" viewBox="0 0 90 23" fill="none" xmlns="http://www.w3.org/2000/svg">
<g clip-path="url(#clip0_393_233)">
<path fill-rule="evenodd" clip-rule="evenodd" d="M88.678 4.75948V7.44077C87.2914 6.91637 86.0568 6.65123 84.9763 6.65123C84.3363 6.65123 83.8266 6.76995 83.4435 6.99949C83.0602 7.23101 82.8647 7.51598 82.8647 7.85238C82.8647 8.29959 83.2972 8.69731 84.1684 9.05353L86.6849 10.2804C88.7195 11.252 89.7289 12.5422 89.7289 14.1628C89.7289 15.5104 89.1936 16.5849 88.1131 17.3804C87.0405 18.1838 85.5965 18.5816 83.799 18.5816C82.9693 18.5816 82.2247 18.546 81.563 18.4707C80.9012 18.3995 80.1407 18.2531 79.2973 18.0433V15.2374C80.8439 15.7618 82.2523 16.0269 83.5205 16.0269C85.0336 16.0269 85.7862 15.5876 85.7862 14.7011C85.7862 14.2598 85.478 13.9036 84.8519 13.6246L82.0568 12.4314C81.0257 11.9644 80.2592 11.3984 79.7575 10.7276C79.2637 10.0509 79.0128 9.27516 79.0128 8.38865C79.0128 7.14789 79.5343 6.14859 80.5654 5.38871C81.6044 4.63477 82.9832 4.25684 84.6978 4.25684C85.2548 4.25684 85.8968 4.30629 86.6079 4.39732C87.3249 4.49429 88.0143 4.61301 88.678 4.75948Z" fill="#666666"/>
<path fill-rule="evenodd" clip-rule="evenodd" d="M9.51528 4.75948V7.44077C8.12859 6.91637 6.89601 6.65123 5.8155 6.65123C5.17352 6.65123 4.66589 6.76995 4.28266 6.99949C3.89947 7.23101 3.7039 7.51598 3.7039 7.85238C3.7039 8.29959 4.14242 8.69731 5.01354 9.05353L7.53009 10.2804C9.55675 11.252 10.5681 12.5422 10.5681 14.1628C10.5681 15.5104 10.0309 16.5849 8.95825 17.3804C7.87774 18.1838 6.44169 18.5816 4.63825 18.5816C3.8086 18.5816 3.06192 18.546 2.40019 18.4707C1.73846 18.3995 0.985855 18.2531 0.136503 18.0433V15.2374C1.68909 15.7618 3.0975 16.0269 4.35773 16.0269C5.87083 16.0269 6.62344 15.5876 6.62344 14.7011C6.62344 14.2598 6.31725 13.9036 5.69699 13.6246L2.90194 12.4314C1.8629 11.9644 1.09647 11.3984 0.602666 10.7276C0.100916 10.0509 -0.144012 9.27516 -0.144012 8.38865C-0.144012 7.14789 0.373534 6.14859 1.41055 5.38871C2.4417 4.63477 3.82242 4.25684 5.53701 4.25684C6.09997 4.25684 6.73405 4.30629 7.45304 4.39732C8.16418 4.49429 8.85355 4.61301 9.51528 4.75948Z" fill="#666666"/>
<path fill-rule="evenodd" clip-rule="evenodd" d="M12.3992 4.50806H16.498V18.3302H12.3992V4.50806Z" fill="#666666"/>
<path fill-rule="evenodd" clip-rule="evenodd" d="M29.703 4.50806V7.06276H23.6131V10.1279H28.8951V12.4313H23.6131V15.6489H29.8275V18.3302H19.6684V4.50806H29.703Z" fill="#666666"/>
<path fill-rule="evenodd" clip-rule="evenodd" d="M48.8379 4.50806V18.3302H45.0115V9.21372L41.0413 18.4568H38.6789L34.8606 9.21372V18.3302H32.0932V4.50806H37.0966L40.5119 12.9695L44.0853 4.50806H48.8379Z" fill="#666666"/>
<path fill-rule="evenodd" clip-rule="evenodd" d="M62.0371 4.50806V7.06276H55.9804V10.1279H61.2624V12.4313H55.9804V15.6489H62.1615V18.3302H52.0025V4.50806H62.0371Z" fill="#666666"/>
<path fill-rule="evenodd" clip-rule="evenodd" d="M76.4192 4.50806V18.3302H72.0716L67.1928 9.46502V18.3302H64.4271V4.50806H68.9014L73.654 13.2209V4.50806H76.4192Z" fill="#666666"/>
</g>
<defs>
<clipPath id="clip0_393_233">
<rect width="90" height="23" fill="white"/>
</clipPath>
</defs>
</svg>
