<svg width="90" height="28" viewBox="0 0 90 28" fill="none" xmlns="http://www.w3.org/2000/svg">
<g clip-path="url(#clip0_393_287)">
<path d="M13.5235 0.0461426C6.07737 0.0461426 0.0407715 6.29498 0.0407715 14.0031C0.0407715 21.7116 6.07737 27.96 13.5235 27.96C20.9705 27.96 27.0065 21.7116 27.0065 14.0031C27.0065 6.29548 20.9705 0.0468092 13.5234 0.0468092L13.5235 0.0461426ZM19.7067 20.1761C19.4652 20.5861 18.9467 20.7161 18.5507 20.4645C15.385 18.4628 11.3999 18.0095 6.70673 19.1195C6.25447 19.2261 5.80367 18.9328 5.70063 18.4645C5.5971 17.9961 5.87934 17.5295 6.33272 17.4228C11.4687 16.2081 15.8742 16.7311 19.4281 18.9795C19.8242 19.2311 19.9498 19.7661 19.7067 20.1761ZM21.3569 16.3758C21.0526 16.8878 20.4054 17.0495 19.9111 16.7345C16.287 14.4285 10.7625 13.7606 6.47585 15.1076C5.91991 15.2815 5.33274 14.9571 5.16401 14.3826C4.99657 13.8071 5.31004 13.2005 5.86501 13.0255C10.7616 11.4875 16.8489 12.2325 21.0108 14.88C21.505 15.195 21.6612 15.8648 21.3569 16.3758ZM21.4986 12.4185C17.1532 9.74664 9.98376 9.50098 5.8349 10.8045C5.16868 11.0136 4.46413 10.6243 4.26224 9.93464C4.06034 9.24464 4.43612 8.51581 5.10283 8.30614C9.86542 6.80948 17.7827 7.09864 22.7857 10.1731C23.3862 10.5413 23.5826 11.3425 23.2268 11.962C22.8726 12.5823 22.0966 12.7868 21.4992 12.4185H21.4986ZM36.7229 12.9305C34.3948 12.3558 33.9811 11.9525 33.9811 11.105C33.9811 10.3043 34.7088 9.76548 35.7923 9.76548C36.8421 9.76548 37.8821 10.1746 38.9737 11.017C39.0059 11.0425 39.0478 11.0526 39.0881 11.046C39.1299 11.0396 39.1653 11.0165 39.1895 10.9816L40.3262 9.32298C40.3728 9.25464 40.36 9.16048 40.2972 9.10831C38.9979 8.02948 37.536 7.50498 35.8262 7.50498C33.3129 7.50498 31.5564 9.06648 31.5564 11.3006C31.5564 13.6965 33.0714 14.5448 35.6893 15.1996C37.916 15.7308 38.2927 16.1758 38.2927 16.9711C38.2927 17.8528 37.5328 18.4011 36.3092 18.4011C34.9503 18.4011 33.841 17.9261 32.6013 16.8161C32.5707 16.7878 32.5288 16.7761 32.4902 16.7778C32.4483 16.7811 32.4113 16.8011 32.3855 16.8328L31.1104 18.4028C31.0573 18.4695 31.0637 18.5661 31.1249 18.6228C32.5675 19.9561 34.3417 20.6595 36.2576 20.6595C38.9657 20.6595 40.7158 19.1278 40.7158 16.7561C40.7206 14.755 39.563 13.6466 36.7278 12.9326L36.7229 12.9305ZM46.8435 10.5538C45.6698 10.5538 44.707 11.0325 43.9117 12.0133V10.9093C43.9117 10.8221 43.844 10.7511 43.7603 10.7511H41.6754C41.5916 10.7511 41.524 10.8221 41.524 10.9093V23.1761C41.524 23.2628 41.5916 23.3345 41.6754 23.3345H43.7603C43.844 23.3345 43.9117 23.2628 43.9117 23.1761V19.3045C44.707 20.2261 45.6698 20.6778 46.8435 20.6778C49.0251 20.6778 51.234 18.9395 51.234 15.6163C51.2372 12.2925 49.0283 10.5536 46.8451 10.5536L46.8435 10.5538ZM48.8093 15.6163C48.8093 17.3078 47.8031 18.4895 46.3605 18.4895C44.9356 18.4895 43.8601 17.2545 43.8601 15.6163C43.8601 13.978 44.9356 12.7433 46.3605 12.7433C47.7789 12.7431 48.8093 13.9513 48.8093 15.6163ZM56.8932 10.5538C54.0838 10.5538 51.8829 12.7931 51.8829 15.6525C51.8829 18.4811 54.0693 20.6961 56.8594 20.6961C59.6786 20.6961 61.8859 18.4645 61.8859 15.6163C61.8859 12.7778 59.6931 10.5541 56.8932 10.5541V10.5538ZM56.8932 18.5061C55.3991 18.5061 54.2721 17.2628 54.2721 15.6155C54.2721 13.9606 55.3605 12.7598 56.8594 12.7598C58.3632 12.7598 59.4966 14.0026 59.4966 15.6516C59.4966 17.3061 58.4018 18.5061 56.8932 18.5061ZM67.8848 10.7511H65.5906V8.32348C65.5906 8.23648 65.5229 8.16548 65.4392 8.16548H63.3542C63.2705 8.16548 63.2013 8.23648 63.2013 8.32348V10.7511H62.1999C62.1161 10.7511 62.0485 10.8221 62.0485 10.9093V12.7638C62.0485 12.8508 62.1161 12.922 62.1999 12.922H63.2013V17.7211C63.2013 19.6595 64.1335 20.6428 65.9737 20.6428C66.7208 20.6428 67.3406 20.4828 67.9251 20.1395C67.9734 20.1128 68.0024 20.0595 68.0024 20.0028V18.2361C68.0024 18.1828 67.975 18.1311 67.9299 18.1028C67.8848 18.0728 67.8285 18.0711 67.7818 18.0961C67.3809 18.3045 66.9929 18.4011 66.5582 18.4011C65.89 18.4011 65.5906 18.0861 65.5906 17.3828V12.9228H67.8848C67.9686 12.9228 68.0362 12.8518 68.0362 12.7646V10.9103C68.0394 10.8231 67.9718 10.7521 67.8864 10.7521L67.8848 10.7511ZM75.877 10.7606V10.4625C75.877 9.58531 76.2022 9.19414 76.9299 9.19414C77.3646 9.19414 77.714 9.28348 78.1052 9.41848C78.1535 9.43414 78.2034 9.42631 78.2421 9.39648C78.2823 9.36664 78.3049 9.31881 78.3049 9.26814V7.44981C78.3049 7.38031 78.263 7.31881 78.197 7.29831C77.7848 7.17114 77.2567 7.04064 76.4646 7.04064C74.5406 7.04064 73.5215 8.16298 73.5215 10.2851V10.7418H72.5201C72.4364 10.7418 72.3671 10.8128 72.3671 10.8998V12.7638C72.3671 12.8508 72.4364 12.922 72.5201 12.922H73.5215V20.3228C73.5215 20.4111 73.5907 20.4811 73.6745 20.4811H75.7578C75.8432 20.4811 75.9108 20.4111 75.9108 20.3228V12.9225H77.8573L80.839 20.3228C80.5009 21.0995 80.1677 21.2545 79.7136 21.2545C79.3465 21.2545 78.9585 21.1411 78.5641 20.9161C78.5271 20.8961 78.482 20.8928 78.4433 20.9045C78.4031 20.9195 78.3693 20.9495 78.3532 20.9895L77.6464 22.5945C77.6126 22.6711 77.6415 22.7595 77.7124 22.7995C78.4498 23.2128 79.1147 23.3895 79.9374 23.3895C81.4766 23.3895 82.3283 22.6461 83.077 20.6495L86.6931 10.9766C86.7124 10.928 86.7059 10.873 86.677 10.8298C86.6496 10.787 86.6029 10.7611 86.553 10.7611H84.3827C84.3167 10.7611 84.2587 10.804 84.2378 10.8671L82.0143 17.4395L79.58 10.8628C79.5575 10.8016 79.5011 10.7611 79.4383 10.7611H75.877V10.7606ZM71.2433 10.7511H69.1584C69.0746 10.7511 69.0054 10.8221 69.0054 10.9093V20.3228C69.0054 20.4111 69.0746 20.4811 69.1584 20.4811H71.2433C71.3271 20.4811 71.3963 20.4111 71.3963 20.3228V10.91C71.3963 10.8228 71.3287 10.7518 71.2433 10.7518V10.7511ZM70.2129 6.46464C69.387 6.46464 68.7172 7.15664 68.7172 8.01148C68.7172 8.86681 69.387 9.55964 70.2129 9.55964C71.0389 9.55964 71.707 8.86681 71.707 8.01148C71.707 7.15681 71.0372 6.46464 70.2129 6.46464ZM88.4737 13.778C87.6494 13.778 87.007 13.0921 87.007 12.2593C87.007 11.4265 87.6575 10.7328 88.4818 10.7328C89.3061 10.7328 89.9485 11.4185 89.9485 12.2506C89.9485 13.0835 89.2981 13.778 88.4737 13.778ZM88.4818 10.8838C87.7299 10.8838 87.1616 11.5021 87.1616 12.2593C87.1616 13.0161 87.7267 13.6261 88.4737 13.6261C89.2256 13.6261 89.794 13.0083 89.794 12.2506C89.794 11.4938 89.2288 10.8838 88.4818 10.8838ZM88.807 12.4068L89.2224 13.0081H88.8714L88.4979 12.4565H88.1775V13.0081H87.8845V11.4141H88.5703C88.9294 11.4141 89.1644 11.6036 89.1644 11.9226C89.166 12.184 89.0195 12.3436 88.8086 12.4068H88.807ZM88.5591 11.6876H88.1775V12.1918H88.5591C88.7491 12.1918 88.8634 12.0953 88.8634 11.9395C88.8634 11.7755 88.7491 11.6876 88.5591 11.6876Z" fill="#777777"/>
</g>
<defs>
<clipPath id="clip0_393_287">
<rect width="90" height="28" fill="white"/>
</clipPath>
</defs>
</svg>
