<svg width="90" height="31" viewBox="0 0 90 31" fill="none" xmlns="http://www.w3.org/2000/svg">
<g clip-path="url(#clip0_393_277)">
<path d="M5.178 22.1398C5.55833 23.1413 6.08489 23.9975 6.75777 24.7086C7.43066 25.4198 8.22782 25.964 9.14928 26.3414C10.0708 26.7187 11.0728 26.9074 12.1552 26.9074C13.2084 26.9074 14.1957 26.7114 15.1173 26.3195C16.0388 25.9276 16.8433 25.3762 17.5307 24.6651C18.2182 23.9539 18.7521 23.1049 19.1324 22.118C19.5128 21.1311 19.7029 20.0282 19.7029 18.809V0H24.3104V30.4775H19.7468V27.6475C18.7229 28.7214 17.516 29.5486 16.1265 30.1293C14.7368 30.7097 13.2377 31 11.6287 31C9.99033 31 8.46183 30.717 7.04295 30.151C5.62416 29.585 4.3954 28.7796 3.35694 27.7346C2.31849 26.6896 1.49928 25.4343 0.899606 23.9684C0.299836 22.5026 0 20.8699 0 19.0702V0H4.60755V18.809C4.60755 20.0282 4.79767 21.1383 5.178 22.1398Z" fill="#666666"/>
<path d="M32.2526 0V11.1025C33.2764 10.0866 34.4613 9.2812 35.807 8.68611C37.1527 8.09102 38.6154 7.79352 40.1951 7.79352C41.8334 7.79352 43.3691 8.09824 44.8027 8.70779C46.2361 9.31733 47.4793 10.1446 48.5326 11.1896C49.5858 12.2346 50.4195 13.4681 51.0339 14.8904C51.6482 16.3128 51.9553 17.8221 51.9553 19.4186C51.9553 21.0149 51.6482 22.5171 51.0339 23.9248C50.4195 25.3326 49.5858 26.559 48.5326 27.6038C47.4793 28.6488 46.2361 29.4761 44.8027 30.0856C43.3691 30.6952 41.8333 30.9999 40.1951 30.9999C38.6153 30.9999 37.1454 30.7024 35.7851 30.1073C34.4247 29.5123 33.2326 28.7068 32.2087 27.6909V30.4775H27.8206V0H32.2526ZM32.7572 22.4228C33.1521 23.3517 33.7007 24.1644 34.4028 24.861C35.1049 25.5577 35.924 26.1092 36.8601 26.5156C37.7963 26.9219 38.8056 27.1251 39.888 27.1251C40.9412 27.1251 41.9358 26.9219 42.8719 26.5156C43.808 26.1092 44.6197 25.5578 45.3074 24.861C45.9948 24.1645 46.5433 23.3517 46.9529 22.4228C47.3624 21.4939 47.5672 20.4926 47.5672 19.4186C47.5672 18.3446 47.3624 17.3359 46.9529 16.3925C46.5433 15.4492 45.9948 14.6292 45.3074 13.9326C44.6198 13.2361 43.8081 12.6917 42.8719 12.2999C41.9357 11.9081 40.9411 11.7121 39.888 11.7121C38.8349 11.7121 37.8402 11.908 36.9041 12.2999C35.968 12.6918 35.1489 13.2361 34.4467 13.9326C33.7447 14.6292 33.1888 15.4492 32.7792 16.3925C32.3697 17.3359 32.1649 18.3446 32.1649 19.4186C32.1648 20.4926 32.3623 21.4939 32.7572 22.4228Z" fill="#666666"/>
<path d="M54.4562 14.9339C55.0412 13.5407 55.8459 12.3144 56.8697 11.2549C57.8934 10.1955 59.1076 9.36097 60.5119 8.75142C61.9161 8.14188 63.4373 7.83716 65.0755 7.83716C66.6845 7.83716 68.1765 8.12743 69.5515 8.70788C70.9264 9.28842 72.1112 10.0939 73.1059 11.1244C74.1005 12.1547 74.8759 13.3739 75.4315 14.7816C75.9874 16.1895 76.2653 17.7206 76.2653 19.3751V20.8119H58.0545C58.2009 21.7118 58.4934 22.5463 58.9322 23.3153C59.3711 24.0845 59.9195 24.7522 60.5777 25.3181C61.2359 25.8842 61.9819 26.3269 62.8157 26.6461C63.6495 26.9654 64.5343 27.1251 65.4705 27.1251C68.1327 27.1251 70.283 26.0366 71.9212 23.8596L75.1245 26.2106C74.0128 27.691 72.638 28.8521 70.9997 29.6938C69.3614 30.5355 67.5184 30.9564 65.4706 30.9564C63.8031 30.9564 62.2453 30.6661 60.7972 30.0856C59.3491 29.5052 58.0912 28.6924 57.0235 27.6474C55.9557 26.6024 55.1146 25.3761 54.5003 23.9683C53.886 22.5606 53.5787 21.0294 53.5787 19.3749C53.5785 17.8076 53.8712 16.3272 54.4562 14.9339ZM60.6216 13.2141C59.3783 14.2445 58.5519 15.616 58.1423 17.3286H71.7895C71.4092 15.616 70.5974 14.2445 69.354 13.2141C68.1107 12.1837 66.6553 11.6685 64.9879 11.6685C63.3203 11.6685 61.8649 12.1837 60.6216 13.2141Z" fill="#666666"/>
<path d="M84.5587 13.7148C83.6226 14.7307 83.1545 16.1094 83.1545 17.851V30.4775H78.7224V8.27242H83.1105V11.0154C83.6664 10.1156 84.3905 9.40442 85.2827 8.88197C86.1749 8.35942 87.2354 8.09814 88.4642 8.09814H90V12.1909H88.157C86.6943 12.191 85.4948 12.6989 84.5587 13.7148Z" fill="#666666"/>
</g>
<defs>
<clipPath id="clip0_393_277">
<rect width="90" height="31" fill="white"/>
</clipPath>
</defs>
</svg>
