<?xml version="1.0" standalone="no"?>
<!DOCTYPE svg PUBLIC "-//W3C//DTD SVG 20010904//EN"
 "http://www.w3.org/TR/2001/REC-SVG-20010904/DTD/svg10.dtd">
<svg version="1.0" xmlns="http://www.w3.org/2000/svg"
 width="260.000000pt" height="260.000000pt" viewBox="0 0 260.000000 260.000000"
 preserveAspectRatio="xMidYMid meet">
<metadata>
Created by potrace 1.14, written by Peter Selinger 2001-2017
</metadata>
<g transform="translate(0.000000,260.000000) scale(0.100000,-0.100000)"
fill="#000000" stroke="none">
<path d="M1009 1523 c0 -197 -2 -374 -5 -393 -6 -51 -46 -121 -88 -155 -30
-24 -48 -30 -91 -32 -45 -1 -60 3 -93 27 -47 33 -75 71 -91 122 -8 25 -12 146
-12 397 0 259 -3 361 -11 361 -7 0 -94 -28 -195 -61 l-183 -61 0 -99 c0 -55 4
-99 9 -99 5 0 38 9 72 20 35 10 65 18 66 16 2 -2 5 -108 7 -237 4 -245 6 -266
33 -339 99 -273 471 -357 677 -154 72 71 110 145 129 251 10 54 16 505 8 600
-1 6 -19 13 -41 15 l-40 3 80 80 c43 44 79 83 80 88 0 4 -70 7 -155 7 l-155 0
-1 -357z"/>
<path d="M1336 1868 c4 -7 37 -44 73 -81 36 -38 67 -72 69 -77 2 -5 -14 -10
-35 -12 l-38 -3 0 -484 0 -484 122 -1 121 -1 4 25 c2 14 3 87 3 163 l-1 137
145 1 c80 0 155 2 166 5 11 2 35 5 52 6 18 2 33 7 33 12 0 5 3 7 6 3 10 -10
103 41 144 79 48 44 95 132 109 204 9 47 9 181 -1 230 -2 8 -18 44 -35 80 -50
102 -132 168 -242 194 -82 19 -706 23 -695 4z m668 -262 c67 -51 86 -148 45
-232 -32 -68 -77 -84 -230 -85 -68 -1 -134 -1 -146 0 -23 1 -23 2 -22 176 l1
174 157 -2 c157 -2 158 -2 195 -31z"/>
</g>
</svg>
